%FSLAX25Y25*%
%MOIN*%
G70*
G01*
G75*
%ADD10R,0.00984X0.03150*%
%ADD11R,0.03150X0.00984*%
%ADD12R,0.17716X0.17716*%
%ADD13R,0.07874X0.07874*%
%ADD14R,0.02362X0.02756*%
%ADD15R,0.02756X0.02362*%
%ADD16R,0.03150X0.03937*%
%ADD17R,0.02559X0.02165*%
%ADD18R,0.02165X0.02559*%
%ADD19R,0.03543X0.03150*%
%ADD20R,0.03543X0.03150*%
%ADD21R,0.01575X0.03937*%
%ADD22O,0.01181X0.07874*%
%ADD23R,0.01181X0.07874*%
%ADD24R,0.03937X0.01575*%
%ADD25R,0.02362X0.07874*%
%ADD26R,0.01063X0.07874*%
%ADD27R,0.05906X0.12992*%
%ADD28R,0.05906X0.03937*%
%ADD29R,0.03150X0.02559*%
%ADD30R,0.05118X0.15748*%
%ADD31C,0.05906*%
%ADD32R,0.03150X0.03543*%
%ADD33R,0.03150X0.03543*%
%ADD34R,0.06299X0.07480*%
%ADD35R,0.02756X0.13386*%
%ADD36R,0.07874X0.10000*%
%ADD37R,0.11417X0.11417*%
%ADD38C,0.00787*%
%ADD39C,0.01575*%
%ADD40C,0.02362*%
%ADD41C,0.01000*%
%ADD42C,0.01181*%
%ADD43R,0.05906X0.05906*%
%ADD44C,0.01969*%
%ADD45C,0.03150*%
%ADD46C,0.02756*%
%ADD47C,0.00984*%
%ADD48C,0.00500*%
%ADD49C,0.00591*%
%ADD50C,0.00394*%
%ADD51C,0.00709*%
%ADD52C,0.00197*%
%ADD53C,0.01200*%
D38*
X16092Y-425269D02*
G03*
X16092Y-430211I3706J-2471D01*
G01*
X26328D02*
G03*
X26328Y-425269I-3706J2471D01*
G01*
X28978Y-315337D02*
G03*
X28978Y-310395I-3706J2471D01*
G01*
X18742D02*
G03*
X18742Y-315337I3706J-2471D01*
G01*
X19012Y-401459D02*
G03*
X19012Y-406401I3706J-2471D01*
G01*
X29248D02*
G03*
X29248Y-401459I-3706J2471D01*
G01*
X30067Y-360760D02*
G03*
X30067Y-360760I-394J0D01*
G01*
X49714Y-456674D02*
G03*
X49714Y-456674I-394J0D01*
G01*
X18280Y-389940D02*
G03*
X18280Y-389940I-394J0D01*
G01*
X16012Y-417659D02*
G03*
X16012Y-422601I3706J-2471D01*
G01*
X26248D02*
G03*
X26248Y-417659I-3706J2471D01*
G01*
X16128Y-38101D02*
G03*
X16128Y-33159I-3706J2471D01*
G01*
X5892D02*
G03*
X5892Y-38101I3706J-2471D01*
G01*
X68354Y-228926D02*
G03*
X68354Y-228926I-394J0D01*
G01*
X16092Y-430211D02*
X20029D01*
X16092Y-425269D02*
X20029D01*
X22391Y-430211D02*
X26328D01*
X22391Y-425269D02*
X26328D01*
X25041Y-310395D02*
X28978D01*
X25041Y-315337D02*
X28978D01*
X18742Y-310395D02*
X22679D01*
X18742Y-315337D02*
X22679D01*
X19012Y-406401D02*
X22949D01*
X19012Y-401459D02*
X22949D01*
X25311Y-406401D02*
X29248D01*
X25311Y-401459D02*
X29248D01*
X17066Y-56150D02*
X19428D01*
X9192D02*
X11554D01*
X19428Y-61819D02*
Y-56150D01*
X9192Y-61780D02*
Y-56150D01*
X17666Y-81250D02*
X20028D01*
X9792D02*
X12154D01*
X20028Y-86919D02*
Y-81250D01*
X9792Y-86880D02*
Y-81250D01*
X60027Y-296080D02*
Y-281277D01*
X46050Y-281316D02*
X59987D01*
X45853Y-310647D02*
Y-281513D01*
Y-310647D02*
X59987D01*
X60027Y-310450D02*
Y-294938D01*
X45853Y-281513D02*
X46050Y-281316D01*
X35017Y-143049D02*
X47615D01*
X35017Y-135568D02*
X47615D01*
X42497Y-141080D02*
Y-137930D01*
X47615Y-143049D02*
Y-135568D01*
X35017Y-143049D02*
Y-135568D01*
X35804Y-143049D02*
Y-135568D01*
X40922Y-139505D02*
X42497Y-141080D01*
X40922Y-139505D02*
X42497Y-137930D01*
X45223Y-111147D02*
X47428D01*
X46759Y-116659D02*
X47389D01*
X47428Y-116619D01*
Y-116029D01*
X46759Y-116659D02*
Y-111147D01*
X47428Y-116029D02*
Y-111147D01*
X35774Y-116659D02*
X46759D01*
X35774D02*
Y-111147D01*
X46759D01*
X45223Y-89317D02*
X47428D01*
X46759Y-94829D02*
X47389D01*
X47428Y-94789D01*
Y-94199D01*
X46759Y-94829D02*
Y-89317D01*
X47428Y-94199D02*
Y-89317D01*
X35774Y-94829D02*
X46759D01*
X35774D02*
Y-89317D01*
X46759D01*
X45213Y-67667D02*
X47418D01*
X46749Y-73179D02*
X47379D01*
X47418Y-73139D01*
Y-72549D01*
X46749Y-73179D02*
Y-67667D01*
X47418Y-72549D02*
Y-67667D01*
X35765Y-73179D02*
X46749D01*
X35765D02*
Y-67667D01*
X46749D01*
X45223Y-46077D02*
X47428D01*
X46759Y-51589D02*
X47389D01*
X47428Y-51549D01*
Y-50959D01*
X46759Y-51589D02*
Y-46077D01*
X47428Y-50959D02*
Y-46077D01*
X35774Y-51589D02*
X46759D01*
X35774D02*
Y-46077D01*
X46759D01*
X16012Y-422601D02*
X19949D01*
X16012Y-417659D02*
X19949D01*
X22311Y-422601D02*
X26248D01*
X22311Y-417659D02*
X26248D01*
X52530Y-340794D02*
Y-338432D01*
Y-348668D02*
Y-346306D01*
Y-338432D02*
X58199D01*
X52530Y-348668D02*
X58160D01*
X12191Y-33159D02*
X16128D01*
X12191Y-38101D02*
X16128D01*
X5892Y-33159D02*
X9829D01*
X5892Y-38101D02*
X9829D01*
X4820Y-243870D02*
Y-223870D01*
Y-243870D02*
X14820D01*
Y-223870D01*
X4820D02*
X14820D01*
X52992Y-240718D02*
X53091D01*
X52992D02*
Y-240619D01*
Y-260501D02*
Y-260402D01*
X53091D01*
X33209D02*
X33307D01*
Y-260501D02*
Y-260402D01*
Y-240718D02*
Y-240619D01*
X33209Y-240718D02*
X33307D01*
D41*
X17660Y-331569D02*
Y-318971D01*
D47*
X55480Y-174833D02*
G03*
X55480Y-174833I-492J0D01*
G01*
X56142Y-237068D02*
G03*
X56142Y-237068I-492J0D01*
G01*
X57134Y-237076D02*
G03*
X57134Y-237076I-984J0D01*
G01*
D48*
X36405Y-377925D02*
G03*
X32506Y-377928I-1945J-4864D01*
G01*
X32476Y-384781D02*
G03*
X36412Y-384856I2063J4907D01*
G01*
X24642Y-218705D02*
G03*
X24646Y-222604I4864J-1945D01*
G01*
X31498Y-222634D02*
G03*
X31574Y-218698I-4907J2063D01*
G01*
X66615Y-324205D02*
G03*
X66612Y-320306I-4864J1945D01*
G01*
X59759Y-320276D02*
G03*
X59684Y-324212I4907J-2063D01*
G01*
X19084Y-304301D02*
G03*
X19088Y-308200I4864J-1945D01*
G01*
X25941Y-308230D02*
G03*
X26016Y-304294I-4907J2063D01*
G01*
X34615Y-438115D02*
G03*
X30716Y-438118I-1945J-4864D01*
G01*
X30686Y-444971D02*
G03*
X34622Y-445046I2063J4907D01*
G01*
X30485Y-458875D02*
G03*
X34384Y-458872I1945J4864D01*
G01*
X34414Y-452019D02*
G03*
X30478Y-451944I-2063J-4907D01*
G01*
X20365Y-50525D02*
G03*
X20362Y-46626I-4864J1945D01*
G01*
X13509Y-46596D02*
G03*
X13434Y-50532I4907J-2063D01*
G01*
X80071Y-219854D02*
G03*
X80146Y-215918I-4907J2063D01*
G01*
X73215Y-215925D02*
G03*
X73218Y-219824I4864J-1945D01*
G01*
X80069Y-226799D02*
G03*
X80145Y-222863I-4907J2063D01*
G01*
X73213Y-222870D02*
G03*
X73216Y-226769I4864J-1945D01*
G01*
X48559Y-166041D02*
G03*
X48484Y-169976I4907J-2063D01*
G01*
X55415Y-169970D02*
G03*
X55412Y-166071I-4864J1945D01*
G01*
X10046Y-184761D02*
G03*
X13982Y-184836I2063J4907D01*
G01*
X13975Y-177905D02*
G03*
X10076Y-177908I-1945J-4864D01*
G01*
X12434Y-205599D02*
G03*
X8498Y-205524I-2063J-4907D01*
G01*
X8505Y-212455D02*
G03*
X12404Y-212452I1945J4864D01*
G01*
X78574Y-197439D02*
G03*
X74638Y-197364I-2063J-4907D01*
G01*
X74645Y-204295D02*
G03*
X78544Y-204292I1945J4864D01*
G01*
X38689Y-268846D02*
G03*
X38614Y-272782I4907J-2063D01*
G01*
X45545Y-272775D02*
G03*
X45542Y-268876I-4864J1945D01*
G01*
X24841Y-240854D02*
G03*
X24916Y-236918I-4907J2063D01*
G01*
X17985Y-236925D02*
G03*
X17988Y-240824I4864J-1945D01*
G01*
X24841Y-253514D02*
G03*
X24916Y-249578I-4907J2063D01*
G01*
X17985Y-249585D02*
G03*
X17988Y-253484I4864J-1945D01*
G01*
X24124Y-265009D02*
G03*
X20188Y-264934I-2063J-4907D01*
G01*
X20195Y-271865D02*
G03*
X24094Y-271862I1945J4864D01*
G01*
X55859Y-269326D02*
G03*
X55784Y-273262I4907J-2063D01*
G01*
X62715Y-273255D02*
G03*
X62712Y-269356I-4864J1945D01*
G01*
X30384Y-265029D02*
G03*
X26448Y-264954I-2063J-4907D01*
G01*
X26455Y-271885D02*
G03*
X30354Y-271882I1945J4864D01*
G01*
X55859Y-263846D02*
G03*
X55784Y-267782I4907J-2063D01*
G01*
X62715Y-267775D02*
G03*
X62712Y-263876I-4864J1945D01*
G01*
X36408Y-380524D02*
Y-377926D01*
X32471Y-380524D02*
X32511Y-377926D01*
X36408Y-384858D02*
Y-382099D01*
X32471Y-384779D02*
Y-382099D01*
X24644Y-218702D02*
X27242D01*
X24644Y-222599D02*
X27242Y-222639D01*
X28817Y-218702D02*
X31575D01*
X28817Y-222639D02*
X31496D01*
X64016Y-324208D02*
X66614D01*
X64016Y-320271D02*
X66614Y-320311D01*
X59682Y-324208D02*
X62441D01*
X59761Y-320271D02*
X62441D01*
X19086Y-304298D02*
X21684D01*
X19086Y-308195D02*
X21684Y-308235D01*
X23259Y-304298D02*
X26017D01*
X23259Y-308235D02*
X25939D01*
X34618Y-440714D02*
Y-438116D01*
X30681Y-440714D02*
X30721Y-438116D01*
X34618Y-445048D02*
Y-442289D01*
X30681Y-444969D02*
Y-442289D01*
X30481Y-458874D02*
Y-456276D01*
X34379Y-458874D02*
X34418Y-456276D01*
X30481Y-454701D02*
Y-451942D01*
X34418Y-454701D02*
Y-452021D01*
X17766Y-50529D02*
X20364D01*
X17766Y-46591D02*
X20364Y-46631D01*
X13432Y-50529D02*
X16191D01*
X13511Y-46591D02*
X16191D01*
X77389Y-219859D02*
X80069D01*
X77389Y-215921D02*
X80148D01*
X73216Y-219819D02*
X75814Y-219859D01*
X73216Y-215921D02*
X75814D01*
X77387Y-226803D02*
X80067D01*
X77387Y-222867D02*
X80146D01*
X73214Y-226764D02*
X75813Y-226803D01*
X73214Y-222867D02*
X75813D01*
X48561Y-166036D02*
X51241D01*
X48482Y-169973D02*
X51241D01*
X52816Y-166036D02*
X55414Y-166076D01*
X52816Y-169973D02*
X55414D01*
X10041Y-184759D02*
Y-182079D01*
X13979Y-184838D02*
Y-182079D01*
X10041Y-180504D02*
X10081Y-177906D01*
X13979Y-180504D02*
Y-177906D01*
X12438Y-208281D02*
Y-205601D01*
X8501Y-208281D02*
Y-205522D01*
X12399Y-212454D02*
X12438Y-209856D01*
X8501Y-212454D02*
Y-209856D01*
X78579Y-200121D02*
Y-197441D01*
X74642Y-200121D02*
Y-197362D01*
X78539Y-204294D02*
X78579Y-201696D01*
X74642Y-204294D02*
Y-201696D01*
X38691Y-268842D02*
X41371D01*
X38612Y-272779D02*
X41371D01*
X42946Y-268842D02*
X45544Y-268881D01*
X42946Y-272779D02*
X45544D01*
X22159Y-240859D02*
X24839D01*
X22159Y-236922D02*
X24917D01*
X17986Y-240819D02*
X20584Y-240859D01*
X17986Y-236922D02*
X20584D01*
X22159Y-253519D02*
X24839D01*
X22159Y-249582D02*
X24917D01*
X17986Y-253479D02*
X20584Y-253519D01*
X17986Y-249582D02*
X20584D01*
X24128Y-267691D02*
Y-265011D01*
X20191Y-267691D02*
Y-264932D01*
X24089Y-271864D02*
X24128Y-269266D01*
X20191Y-271864D02*
Y-269266D01*
X55861Y-269321D02*
X58541D01*
X55782Y-273258D02*
X58541D01*
X60116Y-269321D02*
X62714Y-269361D01*
X60116Y-273258D02*
X62714D01*
X30389Y-267711D02*
Y-265031D01*
X26452Y-267711D02*
Y-264952D01*
X30349Y-271884D02*
X30389Y-269286D01*
X26452Y-271884D02*
Y-269286D01*
X55861Y-263842D02*
X58541D01*
X55782Y-267778D02*
X58541D01*
X60116Y-263842D02*
X62714Y-263881D01*
X60116Y-267778D02*
X62714D01*
D49*
X62394Y-386735D02*
G03*
X62394Y-386735I-781J0D01*
G01*
Y-420275D02*
G03*
X62394Y-420275I-781J0D01*
G01*
X72829Y-22626D02*
G03*
X72820Y-22420I2271J206D01*
G01*
X10572Y-22446D02*
G03*
X10575Y-22549I-1652J-103D01*
G01*
X29234Y-216988D02*
X32581D01*
Y-213052D01*
X29234D02*
X32581D01*
X24313Y-216988D02*
X27659D01*
X24313D02*
Y-213052D01*
X27659D01*
X59488Y-314341D02*
X62835D01*
X59488Y-318279D02*
Y-314341D01*
Y-318279D02*
X62835D01*
X64409Y-314341D02*
X67756D01*
Y-318279D02*
Y-314341D01*
X64409Y-318279D02*
X67756D01*
X49106Y-314341D02*
X52453D01*
X49106Y-318279D02*
Y-314341D01*
Y-318279D02*
X52453D01*
X54027Y-314341D02*
X57374D01*
Y-318279D02*
Y-314341D01*
X54027Y-318279D02*
X57374D01*
X61996Y-37481D02*
X65343D01*
X61996Y-41418D02*
Y-37481D01*
Y-41418D02*
X65343D01*
X66917Y-37481D02*
X70264D01*
Y-41418D02*
Y-37481D01*
X66917Y-41418D02*
X70264D01*
X29234Y-228242D02*
X32581D01*
Y-224305D01*
X29234D02*
X32581D01*
X24313Y-228242D02*
X27659D01*
X24313D02*
Y-224305D01*
X27659D01*
X26381Y-147684D02*
Y-144337D01*
Y-147684D02*
X30318D01*
Y-144337D01*
X26381Y-142763D02*
Y-139416D01*
X30318D01*
Y-142763D02*
Y-139416D01*
X60576Y-46922D02*
X63923D01*
X60576Y-50858D02*
Y-46922D01*
Y-50858D02*
X63923D01*
X65497Y-46922D02*
X68844D01*
Y-50858D02*
Y-46922D01*
X65497Y-50858D02*
X68844D01*
X61581Y-147564D02*
Y-144217D01*
Y-147564D02*
X65518D01*
Y-144217D01*
X61581Y-142643D02*
Y-139296D01*
X65518D01*
Y-142643D02*
Y-139296D01*
X60576Y-68492D02*
X63923D01*
X60576Y-72429D02*
Y-68492D01*
Y-72429D02*
X63923D01*
X65497Y-68492D02*
X68844D01*
Y-72429D02*
Y-68492D01*
X65497Y-72429D02*
X68844D01*
X65518Y-129063D02*
Y-125716D01*
X61581D02*
X65518D01*
X61581Y-129063D02*
Y-125716D01*
X65518Y-133984D02*
Y-130637D01*
X61581Y-133984D02*
X65518D01*
X61581D02*
Y-130637D01*
X60576Y-90101D02*
X63923D01*
X60576Y-94038D02*
Y-90101D01*
Y-94038D02*
X63923D01*
X65497Y-90101D02*
X68844D01*
Y-94038D02*
Y-90101D01*
X65497Y-94038D02*
X68844D01*
X60576Y-112372D02*
X63923D01*
X60576Y-116308D02*
Y-112372D01*
Y-116308D02*
X63923D01*
X65497Y-112372D02*
X68844D01*
Y-116308D02*
Y-112372D01*
X65497Y-116308D02*
X68844D01*
X46487Y-463698D02*
X49834D01*
Y-459761D01*
X46487D02*
X49834D01*
X41566Y-463698D02*
X44913D01*
X41566D02*
Y-459761D01*
X44913D01*
X54696Y-358741D02*
X58043D01*
X54696Y-362679D02*
Y-358741D01*
Y-362679D02*
X58043D01*
X59617Y-358741D02*
X62964D01*
Y-362679D02*
Y-358741D01*
X59617Y-362679D02*
X62964D01*
X20996Y-395752D02*
X24343D01*
X20996Y-399689D02*
Y-395752D01*
Y-399689D02*
X24343D01*
X25917Y-395752D02*
X29264D01*
Y-399689D02*
Y-395752D01*
X25917Y-399689D02*
X29264D01*
X54606Y-353051D02*
X57953D01*
X54606Y-356989D02*
Y-353051D01*
Y-356989D02*
X57953D01*
X59527Y-353051D02*
X62874D01*
Y-356989D02*
Y-353051D01*
X59527Y-356989D02*
X62874D01*
X31236Y-395761D02*
X34583D01*
X31236Y-399698D02*
Y-395761D01*
Y-399698D02*
X34583D01*
X36157Y-395761D02*
X39504D01*
Y-399698D02*
Y-395761D01*
X36157Y-399698D02*
X39504D01*
X39477Y-407469D02*
X42824D01*
Y-403532D01*
X39477D02*
X42824D01*
X34556Y-407469D02*
X37903D01*
X34556D02*
Y-403532D01*
X37903D01*
X57186Y-330161D02*
X60533D01*
X57186Y-334099D02*
Y-330161D01*
Y-334099D02*
X60533D01*
X62107Y-330161D02*
X65454D01*
Y-334099D02*
Y-330161D01*
X62107Y-334099D02*
X65454D01*
X24632Y-455274D02*
Y-451927D01*
Y-455274D02*
X28569D01*
Y-451927D01*
X24632Y-450353D02*
Y-447006D01*
X28569D01*
Y-450353D02*
Y-447006D01*
X24632Y-445276D02*
Y-441930D01*
Y-445276D02*
X28569D01*
Y-441930D01*
X24632Y-440355D02*
Y-437008D01*
X28569D01*
Y-440355D02*
Y-437008D01*
X14319Y-104969D02*
X17666D01*
Y-101031D01*
X14319D02*
X17666D01*
X9398Y-104969D02*
X12745D01*
X9398D02*
Y-101031D01*
X12745D01*
X11546Y-69682D02*
X14893D01*
X11546Y-73619D02*
Y-69682D01*
Y-73619D02*
X14893D01*
X16467Y-69682D02*
X19814D01*
Y-73619D02*
Y-69682D01*
X16467Y-73619D02*
X19814D01*
X14319Y-99019D02*
X17666D01*
Y-95082D01*
X14319D02*
X17666D01*
X9398Y-99019D02*
X12745D01*
X9398D02*
Y-95082D01*
X12745D01*
X22808Y-475395D02*
Y-466537D01*
X60170Y-475356D02*
Y-466537D01*
X22808D02*
X60170D01*
X40775Y-112171D02*
X42467Y-113864D01*
X40775Y-115596D02*
Y-112171D01*
Y-115596D02*
X42467Y-113903D01*
Y-113903D01*
X40775Y-90341D02*
X42467Y-92033D01*
X40775Y-93766D02*
Y-90341D01*
Y-93766D02*
X42467Y-92073D01*
Y-92073D01*
X40764Y-68691D02*
X42457Y-70384D01*
X40764Y-72116D02*
Y-68691D01*
Y-72116D02*
X42457Y-70423D01*
Y-70423D01*
X40775Y-47100D02*
X42467Y-48794D01*
X40775Y-50526D02*
Y-47100D01*
Y-50526D02*
X42467Y-48833D01*
Y-48833D01*
X34506Y-166082D02*
X37853D01*
X34506Y-170018D02*
Y-166082D01*
Y-170018D02*
X37853D01*
X39427Y-166082D02*
X42774D01*
Y-170018D02*
Y-166082D01*
X39427Y-170018D02*
X42774D01*
X74642Y-193654D02*
Y-190307D01*
Y-193654D02*
X78579D01*
Y-190307D01*
X74642Y-188733D02*
Y-185386D01*
X78579D01*
Y-188733D02*
Y-185386D01*
X72789Y-200463D02*
Y-197116D01*
X68852D02*
X72789D01*
X68852Y-200463D02*
Y-197116D01*
X72789Y-205384D02*
Y-202037D01*
X68852Y-205384D02*
X72789D01*
X68852D02*
Y-202037D01*
X67248Y-200453D02*
Y-197106D01*
X63311D02*
X67248D01*
X63311Y-200453D02*
Y-197106D01*
X67248Y-205374D02*
Y-202027D01*
X63311Y-205374D02*
X67248D01*
X63311D02*
Y-202027D01*
X22537Y-234629D02*
X25884D01*
Y-230692D01*
X22537D02*
X25884D01*
X17616Y-234629D02*
X20963D01*
X17616D02*
Y-230692D01*
X20963D01*
X22547Y-259408D02*
X25894D01*
Y-255471D01*
X22547D02*
X25894D01*
X17626Y-259408D02*
X20973D01*
X17626D02*
Y-255471D01*
X20973D01*
X54746Y-275031D02*
X58093D01*
X54746Y-278969D02*
Y-275031D01*
Y-278969D02*
X58093D01*
X59667Y-275031D02*
X63014D01*
Y-278969D02*
Y-275031D01*
X59667Y-278969D02*
X63014D01*
D50*
X63092Y-388406D02*
G03*
X63092Y-389686I0J-640D01*
G01*
Y-421946D02*
G03*
X63092Y-423225I0J-640D01*
G01*
X27429Y-205837D02*
Y-178278D01*
X54988D01*
X27429Y-205837D02*
X54988D01*
Y-178278D01*
X52856Y-385246D02*
X63092D01*
X52856Y-392845D02*
Y-385246D01*
Y-392845D02*
X63092D01*
Y-389686D01*
Y-388406D02*
Y-385246D01*
X52856Y-418786D02*
X63092D01*
X52856Y-426385D02*
Y-418786D01*
Y-426385D02*
X63092D01*
Y-423225D01*
Y-421946D02*
Y-418786D01*
X54878Y-720D02*
X78500D01*
X54878Y-17720D02*
Y-791D01*
Y-17720D02*
X78500D01*
Y-791D01*
X5120Y-720D02*
X46459D01*
Y-17649D02*
Y-720D01*
X5120Y-17649D02*
X46459D01*
X5120D02*
Y-720D01*
X23622Y-161024D02*
Y-31102D01*
X59055D01*
Y-161024D02*
Y-31102D01*
X23622Y-161024D02*
X59055D01*
X31496Y-57284D02*
Y-39567D01*
X51181D01*
Y-57284D02*
Y-39567D01*
X31496Y-57284D02*
X51181D01*
X31496Y-78937D02*
Y-62008D01*
X51181D01*
X31496Y-78937D02*
X51181D01*
Y-62008D01*
X31496Y-100591D02*
Y-83661D01*
X51024D01*
X31496Y-100591D02*
X51063D01*
X51024Y-100551D02*
X51063Y-100591D01*
Y-83701D01*
X31496Y-122244D02*
Y-105315D01*
X51181D01*
X31496Y-122244D02*
X51181D01*
Y-105315D01*
X31496Y-152559D02*
Y-126969D01*
X51181D01*
X31496Y-152559D02*
X51181D01*
Y-126969D01*
X15748Y-279528D02*
Y-165354D01*
X66929D01*
Y-279528D02*
Y-165354D01*
X15748Y-279528D02*
X66929D01*
X52992Y-260402D02*
Y-240718D01*
X33307Y-260402D02*
X52992D01*
X33307D02*
Y-240718D01*
X52992D01*
X30866Y-363544D02*
Y-364856D01*
X31128Y-365118D01*
X31653D01*
X31916Y-364856D01*
Y-363544D01*
X32440Y-363806D02*
X32703Y-363544D01*
X33228D01*
X33490Y-363806D01*
Y-364069D01*
X33228Y-364331D01*
X33490Y-364593D01*
Y-364856D01*
X33228Y-365118D01*
X32703D01*
X32440Y-364856D01*
Y-364593D01*
X32703Y-364331D01*
X32440Y-364069D01*
Y-363806D01*
X32703Y-364331D02*
X33228D01*
X64252Y-388071D02*
Y-389383D01*
X64514Y-389646D01*
X65039D01*
X65302Y-389383D01*
Y-388071D01*
X65826D02*
X66876D01*
Y-388334D01*
X65826Y-389383D01*
Y-389646D01*
X5105Y-84541D02*
Y-83491D01*
X4842Y-83229D01*
X4318D01*
X4055Y-83491D01*
Y-84541D01*
X4318Y-84803D01*
X4842D01*
X4580Y-84278D02*
X5105Y-84803D01*
X4842D02*
X5105Y-84541D01*
X5629Y-83491D02*
X5892Y-83229D01*
X6417D01*
X6679Y-83491D01*
Y-83754D01*
X6417Y-84016D01*
X6154D01*
X6417D01*
X6679Y-84278D01*
Y-84541D01*
X6417Y-84803D01*
X5892D01*
X5629Y-84541D01*
X3609Y-58084D02*
Y-57035D01*
X3346Y-56772D01*
X2821D01*
X2559Y-57035D01*
Y-58084D01*
X2821Y-58346D01*
X3346D01*
X3084Y-57822D02*
X3609Y-58346D01*
X3346D02*
X3609Y-58084D01*
X5183Y-58346D02*
X4133D01*
X5183Y-57297D01*
Y-57035D01*
X4921Y-56772D01*
X4396D01*
X4133Y-57035D01*
X48898Y-327284D02*
Y-328858D01*
X49685D01*
X49947Y-328596D01*
Y-327546D01*
X49685Y-327284D01*
X48898D01*
X51521D02*
X50997Y-327546D01*
X50472Y-328071D01*
Y-328596D01*
X50734Y-328858D01*
X51259D01*
X51521Y-328596D01*
Y-328333D01*
X51259Y-328071D01*
X50472D01*
X36798Y-454948D02*
X36535Y-454685D01*
X36010D01*
X35748Y-454948D01*
Y-455998D01*
X36010Y-456260D01*
X36535D01*
X36798Y-455998D01*
X37322Y-456260D02*
X37847D01*
X37585D01*
Y-454685D01*
X37322Y-454948D01*
X39684Y-456260D02*
X38634D01*
X39684Y-455210D01*
Y-454948D01*
X39421Y-454685D01*
X38897D01*
X38634Y-454948D01*
X37034Y-442586D02*
X36771Y-442323D01*
X36247D01*
X35984Y-442586D01*
Y-443635D01*
X36247Y-443898D01*
X36771D01*
X37034Y-443635D01*
X37558Y-443898D02*
X38083D01*
X37821D01*
Y-442323D01*
X37558Y-442586D01*
X38870Y-443898D02*
X39395D01*
X39133D01*
Y-442323D01*
X38870Y-442586D01*
X16220Y-399331D02*
Y-397756D01*
X17008D01*
X17270Y-398019D01*
Y-398544D01*
X17008Y-398806D01*
X16220D01*
X16745D02*
X17270Y-399331D01*
X17795Y-397756D02*
X18844D01*
Y-398019D01*
X17795Y-399068D01*
Y-399331D01*
X45551Y-42599D02*
Y-44173D01*
X46338D01*
X46601Y-43911D01*
Y-42861D01*
X46338Y-42599D01*
X45551D01*
X48175D02*
X47126D01*
Y-43386D01*
X47650Y-43124D01*
X47913D01*
X48175Y-43386D01*
Y-43911D01*
X47913Y-44173D01*
X47388D01*
X47126Y-43911D01*
X45276Y-64489D02*
Y-66063D01*
X46063D01*
X46325Y-65801D01*
Y-64751D01*
X46063Y-64489D01*
X45276D01*
X47637Y-66063D02*
Y-64489D01*
X46850Y-65276D01*
X47899D01*
X45079Y-86418D02*
Y-87992D01*
X45866D01*
X46128Y-87730D01*
Y-86680D01*
X45866Y-86418D01*
X45079D01*
X46653Y-86680D02*
X46915Y-86418D01*
X47440D01*
X47703Y-86680D01*
Y-86943D01*
X47440Y-87205D01*
X47178D01*
X47440D01*
X47703Y-87467D01*
Y-87730D01*
X47440Y-87992D01*
X46915D01*
X46653Y-87730D01*
X46063Y-108229D02*
Y-109803D01*
X46850D01*
X47113Y-109541D01*
Y-108491D01*
X46850Y-108229D01*
X46063D01*
X47637Y-109803D02*
X48162D01*
X47900D01*
Y-108229D01*
X47637Y-108491D01*
X15026Y-404003D02*
X14763Y-403741D01*
X14239D01*
X13976Y-404003D01*
Y-405053D01*
X14239Y-405315D01*
X14763D01*
X15026Y-405053D01*
X15551Y-405315D02*
X16075D01*
X15813D01*
Y-403741D01*
X15551Y-404003D01*
X7467Y-30263D02*
X7204Y-30000D01*
X6680D01*
X6417Y-30263D01*
Y-31312D01*
X6680Y-31575D01*
X7204D01*
X7467Y-31312D01*
X9041Y-31575D02*
X7992D01*
X9041Y-30525D01*
Y-30263D01*
X8779Y-30000D01*
X8254D01*
X7992Y-30263D01*
X30681Y-420476D02*
X30418Y-420214D01*
X29894D01*
X29631Y-420476D01*
Y-421526D01*
X29894Y-421788D01*
X30418D01*
X30681Y-421526D01*
X31205Y-420476D02*
X31468Y-420214D01*
X31993D01*
X32255Y-420476D01*
Y-420739D01*
X31993Y-421001D01*
X31730D01*
X31993D01*
X32255Y-421263D01*
Y-421526D01*
X31993Y-421788D01*
X31468D01*
X31205Y-421526D01*
X33924Y-374948D02*
X33661Y-374686D01*
X33136D01*
X32874Y-374948D01*
Y-375997D01*
X33136Y-376260D01*
X33661D01*
X33924Y-375997D01*
X35236Y-376260D02*
Y-374686D01*
X34448Y-375473D01*
X35498D01*
X18490Y-43727D02*
X18228Y-43465D01*
X17703D01*
X17441Y-43727D01*
Y-44777D01*
X17703Y-45039D01*
X18228D01*
X18490Y-44777D01*
X20065Y-43465D02*
X19015D01*
Y-44252D01*
X19540Y-43990D01*
X19802D01*
X20065Y-44252D01*
Y-44777D01*
X19802Y-45039D01*
X19278D01*
X19015Y-44777D01*
X14321Y-313092D02*
X14059Y-312830D01*
X13534D01*
X13272Y-313092D01*
Y-314142D01*
X13534Y-314404D01*
X14059D01*
X14321Y-314142D01*
X15896Y-312830D02*
X15371Y-313092D01*
X14846Y-313617D01*
Y-314142D01*
X15109Y-314404D01*
X15633D01*
X15896Y-314142D01*
Y-313879D01*
X15633Y-313617D01*
X14846D01*
X29833Y-428450D02*
X29571Y-428188D01*
X29046D01*
X28784Y-428450D01*
Y-429500D01*
X29046Y-429762D01*
X29571D01*
X29833Y-429500D01*
X30358Y-428188D02*
X31407D01*
Y-428450D01*
X30358Y-429500D01*
Y-429762D01*
X14579Y-306241D02*
X14317Y-305979D01*
X13792D01*
X13530Y-306241D01*
Y-307291D01*
X13792Y-307553D01*
X14317D01*
X14579Y-307291D01*
X15104Y-306241D02*
X15367Y-305979D01*
X15891D01*
X16154Y-306241D01*
Y-306504D01*
X15891Y-306766D01*
X16154Y-307028D01*
Y-307291D01*
X15891Y-307553D01*
X15367D01*
X15104Y-307291D01*
Y-307028D01*
X15367Y-306766D01*
X15104Y-306504D01*
Y-306241D01*
X15367Y-306766D02*
X15891D01*
X54790Y-322461D02*
X54527Y-322198D01*
X54002D01*
X53740Y-322461D01*
Y-323510D01*
X54002Y-323773D01*
X54527D01*
X54790Y-323510D01*
X55314D02*
X55577Y-323773D01*
X56102D01*
X56364Y-323510D01*
Y-322461D01*
X56102Y-322198D01*
X55577D01*
X55314Y-322461D01*
Y-322723D01*
X55577Y-322985D01*
X56364D01*
X20065Y-221208D02*
X19803Y-220945D01*
X19278D01*
X19016Y-221208D01*
Y-222257D01*
X19278Y-222520D01*
X19803D01*
X20065Y-222257D01*
X20590Y-222520D02*
X21115D01*
X20852D01*
Y-220945D01*
X20590Y-221208D01*
X21902D02*
X22164Y-220945D01*
X22689D01*
X22952Y-221208D01*
Y-222257D01*
X22689Y-222520D01*
X22164D01*
X21902Y-222257D01*
Y-221208D01*
X45906Y-131418D02*
Y-132992D01*
X46693D01*
X46955Y-132730D01*
Y-131680D01*
X46693Y-131418D01*
X45906D01*
X48529Y-132992D02*
X47480D01*
X48529Y-131943D01*
Y-131680D01*
X48267Y-131418D01*
X47742D01*
X47480Y-131680D01*
X37638Y-342835D02*
Y-344409D01*
X38687D01*
X39212D02*
X39737D01*
X39474D01*
Y-342835D01*
X39212Y-343097D01*
X18740Y-466653D02*
Y-465079D01*
X19527D01*
X19790Y-465342D01*
Y-465866D01*
X19527Y-466129D01*
X18740D01*
X20314Y-466653D02*
X20839D01*
X20577D01*
Y-465079D01*
X20314Y-465342D01*
X42087Y-23740D02*
Y-22166D01*
X42874D01*
X43136Y-22428D01*
Y-22953D01*
X42874Y-23215D01*
X42087D01*
X44710Y-23740D02*
X43661D01*
X44710Y-22691D01*
Y-22428D01*
X44448Y-22166D01*
X43923D01*
X43661Y-22428D01*
X55709Y-23858D02*
Y-22284D01*
X56496D01*
X56758Y-22546D01*
Y-23071D01*
X56496Y-23334D01*
X55709D01*
X57283Y-22546D02*
X57545Y-22284D01*
X58070D01*
X58333Y-22546D01*
Y-22809D01*
X58070Y-23071D01*
X57808D01*
X58070D01*
X58333Y-23334D01*
Y-23596D01*
X58070Y-23858D01*
X57545D01*
X57283Y-23596D01*
X47703Y-348596D02*
Y-347546D01*
X47441Y-347284D01*
X46916D01*
X46654Y-347546D01*
Y-348596D01*
X46916Y-348858D01*
X47441D01*
X47178Y-348334D02*
X47703Y-348858D01*
X47441D02*
X47703Y-348596D01*
X48228Y-348858D02*
X48753D01*
X48490D01*
Y-347284D01*
X48228Y-347546D01*
X66448Y-333017D02*
Y-331443D01*
X67236D01*
X67498Y-331705D01*
Y-332230D01*
X67236Y-332492D01*
X66448D01*
X66973D02*
X67498Y-333017D01*
X68023D02*
X68547D01*
X68285D01*
Y-331443D01*
X68023Y-331705D01*
X37126Y-411422D02*
Y-409848D01*
X37913D01*
X38175Y-410110D01*
Y-410635D01*
X37913Y-410897D01*
X37126D01*
X37650D02*
X38175Y-411422D01*
X39750D02*
X38700D01*
X39750Y-410372D01*
Y-410110D01*
X39487Y-409848D01*
X38963D01*
X38700Y-410110D01*
X35276Y-394213D02*
Y-392638D01*
X36063D01*
X36325Y-392901D01*
Y-393425D01*
X36063Y-393688D01*
X35276D01*
X35800D02*
X36325Y-394213D01*
X36850Y-392901D02*
X37112Y-392638D01*
X37637D01*
X37899Y-392901D01*
Y-393163D01*
X37637Y-393425D01*
X37375D01*
X37637D01*
X37899Y-393688D01*
Y-393950D01*
X37637Y-394213D01*
X37112D01*
X36850Y-393950D01*
X3351Y-98561D02*
Y-96987D01*
X4138D01*
X4400Y-97249D01*
Y-97774D01*
X4138Y-98036D01*
X3351D01*
X3876D02*
X4400Y-98561D01*
X5712D02*
Y-96987D01*
X4925Y-97774D01*
X5975D01*
X64169Y-356452D02*
Y-354878D01*
X64956D01*
X65219Y-355140D01*
Y-355665D01*
X64956Y-355928D01*
X64169D01*
X64694D02*
X65219Y-356452D01*
X66793Y-354878D02*
X65744D01*
Y-355665D01*
X66268Y-355403D01*
X66531D01*
X66793Y-355665D01*
Y-356190D01*
X66531Y-356452D01*
X66006D01*
X65744Y-356190D01*
X25674Y-435206D02*
Y-433632D01*
X26461D01*
X26724Y-433894D01*
Y-434419D01*
X26461Y-434681D01*
X25674D01*
X26199D02*
X26724Y-435206D01*
X28298Y-433632D02*
X27773Y-433894D01*
X27248Y-434419D01*
Y-434944D01*
X27511Y-435206D01*
X28035D01*
X28298Y-434944D01*
Y-434681D01*
X28035Y-434419D01*
X27248D01*
X64549Y-361317D02*
Y-359743D01*
X65336D01*
X65598Y-360006D01*
Y-360530D01*
X65336Y-360793D01*
X64549D01*
X65073D02*
X65598Y-361317D01*
X66123Y-360006D02*
X66385Y-359743D01*
X66910D01*
X67172Y-360006D01*
Y-360268D01*
X66910Y-360530D01*
X67172Y-360793D01*
Y-361055D01*
X66910Y-361317D01*
X66385D01*
X66123Y-361055D01*
Y-360793D01*
X66385Y-360530D01*
X66123Y-360268D01*
Y-360006D01*
X66385Y-360530D02*
X66910D01*
X4800Y-72636D02*
Y-71062D01*
X5587D01*
X5850Y-71325D01*
Y-71849D01*
X5587Y-72112D01*
X4800D01*
X5325D02*
X5850Y-72636D01*
X6374Y-72374D02*
X6637Y-72636D01*
X7162D01*
X7424Y-72374D01*
Y-71325D01*
X7162Y-71062D01*
X6637D01*
X6374Y-71325D01*
Y-71587D01*
X6637Y-71849D01*
X7424D01*
X1811Y-104528D02*
Y-102953D01*
X2598D01*
X2860Y-103216D01*
Y-103740D01*
X2598Y-104003D01*
X1811D01*
X2336D02*
X2860Y-104528D01*
X3385D02*
X3910D01*
X3648D01*
Y-102953D01*
X3385Y-103216D01*
X4697D02*
X4960Y-102953D01*
X5484D01*
X5747Y-103216D01*
Y-104265D01*
X5484Y-104528D01*
X4960D01*
X4697Y-104265D01*
Y-103216D01*
X24016Y-458780D02*
Y-457206D01*
X24803D01*
X25065Y-457468D01*
Y-457993D01*
X24803Y-458255D01*
X24016D01*
X24541D02*
X25065Y-458780D01*
X25590D02*
X26115D01*
X25852D01*
Y-457206D01*
X25590Y-457468D01*
X26902Y-458780D02*
X27427D01*
X27164D01*
Y-457206D01*
X26902Y-457468D01*
X51051Y-462756D02*
Y-461182D01*
X51838D01*
X52100Y-461444D01*
Y-461969D01*
X51838Y-462231D01*
X51051D01*
X51575D02*
X52100Y-462756D01*
X52625D02*
X53149D01*
X52887D01*
Y-461182D01*
X52625Y-461444D01*
X54986Y-462756D02*
X53937D01*
X54986Y-461706D01*
Y-461444D01*
X54724Y-461182D01*
X54199D01*
X53937Y-461444D01*
X70433Y-115276D02*
Y-113701D01*
X71220D01*
X71483Y-113964D01*
Y-114488D01*
X71220Y-114751D01*
X70433D01*
X70958D02*
X71483Y-115276D01*
X72007D02*
X72532D01*
X72270D01*
Y-113701D01*
X72007Y-113964D01*
X74369Y-113701D02*
X73319D01*
Y-114488D01*
X73844Y-114226D01*
X74106D01*
X74369Y-114488D01*
Y-115013D01*
X74106Y-115276D01*
X73582D01*
X73319Y-115013D01*
X61794Y-98786D02*
Y-97212D01*
X62581D01*
X62843Y-97475D01*
Y-97999D01*
X62581Y-98262D01*
X61794D01*
X62318D02*
X62843Y-98786D01*
X63368D02*
X63893D01*
X63630D01*
Y-97212D01*
X63368Y-97475D01*
X65729Y-97212D02*
X65205Y-97475D01*
X64680Y-97999D01*
Y-98524D01*
X64942Y-98786D01*
X65467D01*
X65729Y-98524D01*
Y-98262D01*
X65467Y-97999D01*
X64680D01*
X66496Y-130905D02*
Y-129331D01*
X67283D01*
X67546Y-129594D01*
Y-130118D01*
X67283Y-130381D01*
X66496D01*
X67021D02*
X67546Y-130905D01*
X68070D02*
X68595D01*
X68333D01*
Y-129331D01*
X68070Y-129594D01*
X69382Y-129331D02*
X70432D01*
Y-129594D01*
X69382Y-130643D01*
Y-130905D01*
X61428Y-76618D02*
Y-75044D01*
X62216D01*
X62478Y-75306D01*
Y-75831D01*
X62216Y-76093D01*
X61428D01*
X61953D02*
X62478Y-76618D01*
X63003D02*
X63528D01*
X63265D01*
Y-75044D01*
X63003Y-75306D01*
X64315D02*
X64577Y-75044D01*
X65102D01*
X65364Y-75306D01*
Y-75569D01*
X65102Y-75831D01*
X65364Y-76093D01*
Y-76356D01*
X65102Y-76618D01*
X64577D01*
X64315Y-76356D01*
Y-76093D01*
X64577Y-75831D01*
X64315Y-75569D01*
Y-75306D01*
X64577Y-75831D02*
X65102D01*
X66969Y-143347D02*
Y-141772D01*
X67756D01*
X68018Y-142034D01*
Y-142559D01*
X67756Y-142822D01*
X66969D01*
X67493D02*
X68018Y-143347D01*
X68543D02*
X69068D01*
X68805D01*
Y-141772D01*
X68543Y-142034D01*
X69855Y-143084D02*
X70117Y-143347D01*
X70642D01*
X70904Y-143084D01*
Y-142034D01*
X70642Y-141772D01*
X70117D01*
X69855Y-142034D01*
Y-142297D01*
X70117Y-142559D01*
X70904D01*
X71181Y-50591D02*
Y-49016D01*
X71968D01*
X72231Y-49279D01*
Y-49803D01*
X71968Y-50066D01*
X71181D01*
X71706D02*
X72231Y-50591D01*
X73805D02*
X72755D01*
X73805Y-49541D01*
Y-49279D01*
X73542Y-49016D01*
X73018D01*
X72755Y-49279D01*
X74330D02*
X74592Y-49016D01*
X75117D01*
X75379Y-49279D01*
Y-50328D01*
X75117Y-50591D01*
X74592D01*
X74330Y-50328D01*
Y-49279D01*
X25984Y-154331D02*
Y-152756D01*
X26771D01*
X27034Y-153019D01*
Y-153544D01*
X26771Y-153806D01*
X25984D01*
X26509D02*
X27034Y-154331D01*
X28608D02*
X27558D01*
X28608Y-153281D01*
Y-153019D01*
X28346Y-152756D01*
X27821D01*
X27558Y-153019D01*
X29133Y-154331D02*
X29658D01*
X29395D01*
Y-152756D01*
X29133Y-153019D01*
X33858Y-227087D02*
Y-225512D01*
X34645D01*
X34908Y-225775D01*
Y-226300D01*
X34645Y-226562D01*
X33858D01*
X34383D02*
X34908Y-227087D01*
X36482D02*
X35433D01*
X36482Y-226037D01*
Y-225775D01*
X36220Y-225512D01*
X35695D01*
X35433Y-225775D01*
X38056Y-227087D02*
X37007D01*
X38056Y-226037D01*
Y-225775D01*
X37794Y-225512D01*
X37269D01*
X37007Y-225775D01*
X72008Y-37835D02*
Y-36260D01*
X72795D01*
X73057Y-36523D01*
Y-37047D01*
X72795Y-37310D01*
X72008D01*
X72533D02*
X73057Y-37835D01*
X74632D02*
X73582D01*
X74632Y-36785D01*
Y-36523D01*
X74369Y-36260D01*
X73844D01*
X73582Y-36523D01*
X75156D02*
X75419Y-36260D01*
X75944D01*
X76206Y-36523D01*
Y-36785D01*
X75944Y-37047D01*
X75681D01*
X75944D01*
X76206Y-37310D01*
Y-37572D01*
X75944Y-37835D01*
X75419D01*
X75156Y-37572D01*
X41299Y-315472D02*
Y-313898D01*
X42086D01*
X42349Y-314160D01*
Y-314685D01*
X42086Y-314948D01*
X41299D01*
X41824D02*
X42349Y-315472D01*
X43923D02*
X42873D01*
X43923Y-314423D01*
Y-314160D01*
X43661Y-313898D01*
X43136D01*
X42873Y-314160D01*
X45235Y-315472D02*
Y-313898D01*
X44448Y-314685D01*
X45497D01*
X60702Y-312957D02*
Y-311383D01*
X61489D01*
X61752Y-311645D01*
Y-312170D01*
X61489Y-312432D01*
X60702D01*
X61227D02*
X61752Y-312957D01*
X63326D02*
X62276D01*
X63326Y-311908D01*
Y-311645D01*
X63064Y-311383D01*
X62539D01*
X62276Y-311645D01*
X64900Y-311383D02*
X63851D01*
Y-312170D01*
X64376Y-311908D01*
X64638D01*
X64900Y-312170D01*
Y-312695D01*
X64638Y-312957D01*
X64113D01*
X63851Y-312695D01*
X18846Y-215918D02*
Y-214344D01*
X19633D01*
X19896Y-214606D01*
Y-215131D01*
X19633Y-215393D01*
X18846D01*
X19371D02*
X19896Y-215918D01*
X21470D02*
X20421D01*
X21470Y-214869D01*
Y-214606D01*
X21208Y-214344D01*
X20683D01*
X20421Y-214606D01*
X23044Y-214344D02*
X22520Y-214606D01*
X21995Y-215131D01*
Y-215656D01*
X22257Y-215918D01*
X22782D01*
X23044Y-215656D01*
Y-215393D01*
X22782Y-215131D01*
X21995D01*
X48150Y-442599D02*
Y-443911D01*
X48412Y-444173D01*
X48937D01*
X49199Y-443911D01*
Y-442599D01*
X49724Y-444173D02*
X50249D01*
X49986D01*
Y-442599D01*
X49724Y-442861D01*
X12992Y-385394D02*
Y-386706D01*
X13254Y-386968D01*
X13779D01*
X14042Y-386706D01*
Y-385394D01*
X15616Y-386968D02*
X14566D01*
X15616Y-385919D01*
Y-385657D01*
X15354Y-385394D01*
X14829D01*
X14566Y-385657D01*
X64370Y-421930D02*
Y-423242D01*
X64632Y-423504D01*
X65157D01*
X65420Y-423242D01*
Y-421930D01*
X65944Y-422192D02*
X66207Y-421930D01*
X66732D01*
X66994Y-422192D01*
Y-422454D01*
X66732Y-422717D01*
X66469D01*
X66732D01*
X66994Y-422979D01*
Y-423242D01*
X66732Y-423504D01*
X66207D01*
X65944Y-423242D01*
X61888Y-285246D02*
Y-286558D01*
X62150Y-286821D01*
X62675D01*
X62937Y-286558D01*
Y-285246D01*
X64249Y-286821D02*
Y-285246D01*
X63462Y-286033D01*
X64512D01*
X14215Y-471331D02*
Y-472643D01*
X14478Y-472905D01*
X15002D01*
X15265Y-472643D01*
Y-471331D01*
X16839D02*
X15789D01*
Y-472118D01*
X16314Y-471856D01*
X16577D01*
X16839Y-472118D01*
Y-472643D01*
X16577Y-472905D01*
X16052D01*
X15789Y-472643D01*
X21502Y-201003D02*
X22814D01*
X23076Y-200741D01*
Y-200216D01*
X22814Y-199953D01*
X21502D01*
Y-198379D02*
X21764Y-198904D01*
X22289Y-199429D01*
X22814D01*
X23076Y-199166D01*
Y-198642D01*
X22814Y-198379D01*
X22551D01*
X22289Y-198642D01*
Y-199429D01*
X77939Y-206050D02*
X77677Y-205788D01*
X77152D01*
X76890Y-206050D01*
Y-207100D01*
X77152Y-207362D01*
X77677D01*
X77939Y-207100D01*
X78464Y-207362D02*
X78989D01*
X78726D01*
Y-205788D01*
X78464Y-206050D01*
X79776D02*
X80038Y-205788D01*
X80563D01*
X80826Y-206050D01*
Y-206313D01*
X80563Y-206575D01*
X80301D01*
X80563D01*
X80826Y-206837D01*
Y-207100D01*
X80563Y-207362D01*
X80038D01*
X79776Y-207100D01*
X14628Y-208290D02*
X14366Y-208027D01*
X13841D01*
X13578Y-208290D01*
Y-209339D01*
X13841Y-209602D01*
X14366D01*
X14628Y-209339D01*
X15153Y-209602D02*
X15677D01*
X15415D01*
Y-208027D01*
X15153Y-208290D01*
X17252Y-209602D02*
Y-208027D01*
X16465Y-208815D01*
X17514D01*
X11916Y-174476D02*
X11653Y-174213D01*
X11129D01*
X10866Y-174476D01*
Y-175525D01*
X11129Y-175787D01*
X11653D01*
X11916Y-175525D01*
X12440Y-175787D02*
X12965D01*
X12703D01*
Y-174213D01*
X12440Y-174476D01*
X14802Y-174213D02*
X13752D01*
Y-175000D01*
X14277Y-174738D01*
X14539D01*
X14802Y-175000D01*
Y-175525D01*
X14539Y-175787D01*
X14015D01*
X13752Y-175525D01*
X51011Y-162861D02*
X50748Y-162599D01*
X50223D01*
X49961Y-162861D01*
Y-163910D01*
X50223Y-164173D01*
X50748D01*
X51011Y-163910D01*
X51535Y-164173D02*
X52060D01*
X51798D01*
Y-162599D01*
X51535Y-162861D01*
X53897Y-162599D02*
X53372Y-162861D01*
X52847Y-163386D01*
Y-163910D01*
X53110Y-164173D01*
X53634D01*
X53897Y-163910D01*
Y-163648D01*
X53634Y-163386D01*
X52847D01*
X41039Y-274513D02*
X40777Y-274250D01*
X40252D01*
X39990Y-274513D01*
Y-275562D01*
X40252Y-275825D01*
X40777D01*
X41039Y-275562D01*
X41564Y-275825D02*
X42089D01*
X41827D01*
Y-274250D01*
X41564Y-274513D01*
X42876Y-274250D02*
X43926D01*
Y-274513D01*
X42876Y-275562D01*
Y-275825D01*
X68783Y-217097D02*
X68520Y-216834D01*
X67996D01*
X67733Y-217097D01*
Y-218146D01*
X67996Y-218408D01*
X68520D01*
X68783Y-218146D01*
X69308Y-218408D02*
X69832D01*
X69570D01*
Y-216834D01*
X69308Y-217097D01*
X70619D02*
X70882Y-216834D01*
X71407D01*
X71669Y-217097D01*
Y-217359D01*
X71407Y-217621D01*
X71669Y-217884D01*
Y-218146D01*
X71407Y-218408D01*
X70882D01*
X70619Y-218146D01*
Y-217884D01*
X70882Y-217621D01*
X70619Y-217359D01*
Y-217097D01*
X70882Y-217621D02*
X71407D01*
X68411Y-225173D02*
X68148Y-224911D01*
X67624D01*
X67361Y-225173D01*
Y-226223D01*
X67624Y-226485D01*
X68148D01*
X68411Y-226223D01*
X68936Y-226485D02*
X69460D01*
X69198D01*
Y-224911D01*
X68936Y-225173D01*
X70247Y-226223D02*
X70510Y-226485D01*
X71034D01*
X71297Y-226223D01*
Y-225173D01*
X71034Y-224911D01*
X70510D01*
X70247Y-225173D01*
Y-225435D01*
X70510Y-225698D01*
X71297D01*
X57821Y-261326D02*
X57559Y-261064D01*
X57034D01*
X56772Y-261326D01*
Y-262375D01*
X57034Y-262638D01*
X57559D01*
X57821Y-262375D01*
X59395Y-262638D02*
X58346D01*
X59395Y-261588D01*
Y-261326D01*
X59133Y-261064D01*
X58608D01*
X58346Y-261326D01*
X59920D02*
X60183Y-261064D01*
X60707D01*
X60970Y-261326D01*
Y-262375D01*
X60707Y-262638D01*
X60183D01*
X59920Y-262375D01*
Y-261326D01*
X51128Y-270460D02*
X50866Y-270197D01*
X50341D01*
X50079Y-270460D01*
Y-271509D01*
X50341Y-271772D01*
X50866D01*
X51128Y-271509D01*
X52703Y-271772D02*
X51653D01*
X52703Y-270722D01*
Y-270460D01*
X52440Y-270197D01*
X51915D01*
X51653Y-270460D01*
X53227Y-271772D02*
X53752D01*
X53490D01*
Y-270197D01*
X53227Y-270460D01*
X21207Y-273727D02*
X20945Y-273465D01*
X20420D01*
X20157Y-273727D01*
Y-274777D01*
X20420Y-275039D01*
X20945D01*
X21207Y-274777D01*
X22781Y-275039D02*
X21732D01*
X22781Y-273990D01*
Y-273727D01*
X22519Y-273465D01*
X21994D01*
X21732Y-273727D01*
X24356Y-275039D02*
X23306D01*
X24356Y-273990D01*
Y-273727D01*
X24093Y-273465D01*
X23568D01*
X23306Y-273727D01*
X27270Y-273609D02*
X27008Y-273347D01*
X26483D01*
X26221Y-273609D01*
Y-274659D01*
X26483Y-274921D01*
X27008D01*
X27270Y-274659D01*
X28844Y-274921D02*
X27795D01*
X28844Y-273872D01*
Y-273609D01*
X28582Y-273347D01*
X28057D01*
X27795Y-273609D01*
X29369D02*
X29631Y-273347D01*
X30156D01*
X30419Y-273609D01*
Y-273872D01*
X30156Y-274134D01*
X29894D01*
X30156D01*
X30419Y-274396D01*
Y-274659D01*
X30156Y-274921D01*
X29631D01*
X29369Y-274659D01*
X21364Y-247415D02*
X21102Y-247152D01*
X20577D01*
X20315Y-247415D01*
Y-248464D01*
X20577Y-248727D01*
X21102D01*
X21364Y-248464D01*
X22939Y-248727D02*
X21889D01*
X22939Y-247677D01*
Y-247415D01*
X22676Y-247152D01*
X22152D01*
X21889Y-247415D01*
X24251Y-248727D02*
Y-247152D01*
X23463Y-247939D01*
X24513D01*
X27664Y-238255D02*
X27401Y-237993D01*
X26877D01*
X26614Y-238255D01*
Y-239305D01*
X26877Y-239567D01*
X27401D01*
X27664Y-239305D01*
X29238Y-239567D02*
X28188D01*
X29238Y-238517D01*
Y-238255D01*
X28976Y-237993D01*
X28451D01*
X28188Y-238255D01*
X30812Y-237993D02*
X29763D01*
Y-238780D01*
X30288Y-238517D01*
X30550D01*
X30812Y-238780D01*
Y-239305D01*
X30550Y-239567D01*
X30025D01*
X29763Y-239305D01*
X5470Y-220520D02*
Y-218946D01*
X6257D01*
X6520Y-219208D01*
Y-219733D01*
X6257Y-219995D01*
X5470D01*
X7831Y-220520D02*
Y-218946D01*
X7044Y-219733D01*
X8094D01*
X74264Y-184293D02*
Y-182718D01*
X75051D01*
X75313Y-182981D01*
Y-183505D01*
X75051Y-183768D01*
X74264D01*
X74789D02*
X75313Y-184293D01*
X76888D02*
X75838D01*
X76888Y-183243D01*
Y-182981D01*
X76625Y-182718D01*
X76100D01*
X75838Y-182981D01*
X77412Y-182718D02*
X78462D01*
Y-182981D01*
X77412Y-184030D01*
Y-184293D01*
X35079Y-164392D02*
Y-162817D01*
X35866D01*
X36128Y-163080D01*
Y-163604D01*
X35866Y-163867D01*
X35079D01*
X35603D02*
X36128Y-164392D01*
X37703D02*
X36653D01*
X37703Y-163342D01*
Y-163080D01*
X37440Y-162817D01*
X36915D01*
X36653Y-163080D01*
X38227D02*
X38490Y-162817D01*
X39015D01*
X39277Y-163080D01*
Y-163342D01*
X39015Y-163604D01*
X39277Y-163867D01*
Y-164129D01*
X39015Y-164392D01*
X38490D01*
X38227Y-164129D01*
Y-163867D01*
X38490Y-163604D01*
X38227Y-163342D01*
Y-163080D01*
X38490Y-163604D02*
X39015D01*
X48976Y-275748D02*
Y-274174D01*
X49764D01*
X50026Y-274436D01*
Y-274961D01*
X49764Y-275223D01*
X48976D01*
X49501D02*
X50026Y-275748D01*
X51600D02*
X50551D01*
X51600Y-274698D01*
Y-274436D01*
X51338Y-274174D01*
X50813D01*
X50551Y-274436D01*
X52125Y-275486D02*
X52387Y-275748D01*
X52912D01*
X53175Y-275486D01*
Y-274436D01*
X52912Y-274174D01*
X52387D01*
X52125Y-274436D01*
Y-274698D01*
X52387Y-274961D01*
X53175D01*
X61890Y-208071D02*
Y-206497D01*
X62677D01*
X62939Y-206759D01*
Y-207284D01*
X62677Y-207546D01*
X61890D01*
X62414D02*
X62939Y-208071D01*
X63464Y-206759D02*
X63726Y-206497D01*
X64251D01*
X64514Y-206759D01*
Y-207021D01*
X64251Y-207284D01*
X63989D01*
X64251D01*
X64514Y-207546D01*
Y-207808D01*
X64251Y-208071D01*
X63726D01*
X63464Y-207808D01*
X65038Y-206759D02*
X65301Y-206497D01*
X65825D01*
X66088Y-206759D01*
Y-207808D01*
X65825Y-208071D01*
X65301D01*
X65038Y-207808D01*
Y-206759D01*
X69870Y-208208D02*
Y-206633D01*
X70657D01*
X70920Y-206896D01*
Y-207421D01*
X70657Y-207683D01*
X69870D01*
X70395D02*
X70920Y-208208D01*
X71444Y-206896D02*
X71707Y-206633D01*
X72232D01*
X72494Y-206896D01*
Y-207158D01*
X72232Y-207421D01*
X71969D01*
X72232D01*
X72494Y-207683D01*
Y-207945D01*
X72232Y-208208D01*
X71707D01*
X71444Y-207945D01*
X73019Y-208208D02*
X73543D01*
X73281D01*
Y-206633D01*
X73019Y-206896D01*
X21024Y-261918D02*
Y-260344D01*
X21811D01*
X22073Y-260606D01*
Y-261131D01*
X21811Y-261393D01*
X21024D01*
X21548D02*
X22073Y-261918D01*
X22598Y-260606D02*
X22860Y-260344D01*
X23385D01*
X23647Y-260606D01*
Y-260868D01*
X23385Y-261131D01*
X23123D01*
X23385D01*
X23647Y-261393D01*
Y-261655D01*
X23385Y-261918D01*
X22860D01*
X22598Y-261655D01*
X24172Y-260606D02*
X24435Y-260344D01*
X24959D01*
X25222Y-260606D01*
Y-260868D01*
X24959Y-261131D01*
X24697D01*
X24959D01*
X25222Y-261393D01*
Y-261655D01*
X24959Y-261918D01*
X24435D01*
X24172Y-261655D01*
X26890Y-232047D02*
Y-230473D01*
X27677D01*
X27939Y-230735D01*
Y-231260D01*
X27677Y-231522D01*
X26890D01*
X27415D02*
X27939Y-232047D01*
X28464Y-230735D02*
X28726Y-230473D01*
X29251D01*
X29514Y-230735D01*
Y-230998D01*
X29251Y-231260D01*
X28989D01*
X29251D01*
X29514Y-231522D01*
Y-231785D01*
X29251Y-232047D01*
X28726D01*
X28464Y-231785D01*
X30825Y-232047D02*
Y-230473D01*
X30038Y-231260D01*
X31088D01*
X54843Y-239567D02*
Y-240879D01*
X55105Y-241142D01*
X55630D01*
X55892Y-240879D01*
Y-239567D01*
X56417Y-240879D02*
X56679Y-241142D01*
X57204D01*
X57466Y-240879D01*
Y-239830D01*
X57204Y-239567D01*
X56679D01*
X56417Y-239830D01*
Y-240092D01*
X56679Y-240355D01*
X57466D01*
X73386Y-241930D02*
Y-243242D01*
X73648Y-243504D01*
X74173D01*
X74435Y-243242D01*
Y-241930D01*
X74960Y-243504D02*
X75485D01*
X75222D01*
Y-241930D01*
X74960Y-242192D01*
X76272D02*
X76534Y-241930D01*
X77059D01*
X77322Y-242192D01*
Y-243242D01*
X77059Y-243504D01*
X76534D01*
X76272Y-243242D01*
Y-242192D01*
X14410Y-442402D02*
X15009Y-443976D01*
X15609Y-442402D02*
X15009Y-443976D01*
X15811Y-443302D02*
X17161D01*
X17626Y-442402D02*
Y-443976D01*
Y-442402D02*
X18226Y-443976D01*
X18825Y-442402D02*
X18226Y-443976D01*
X18825Y-442402D02*
Y-443976D01*
X13583Y-464685D02*
X14183Y-466260D01*
X14782Y-464685D02*
X14183Y-466260D01*
X14985Y-465585D02*
X16334D01*
X12717Y-431378D02*
X13316Y-432953D01*
X13916Y-431378D02*
X13316Y-432953D01*
X14793Y-431603D02*
Y-432953D01*
X14119Y-432278D02*
X15468D01*
D51*
X29489Y-368410D02*
Y-362110D01*
X18071D02*
X29489D01*
X18071Y-368410D02*
X29489D01*
X18071D02*
Y-362110D01*
X41670Y-456489D02*
X47970D01*
Y-445071D01*
X41670Y-456489D02*
Y-445071D01*
X47970D01*
X18071Y-388590D02*
Y-382290D01*
Y-388590D02*
X29489D01*
X18071Y-382290D02*
X29489D01*
Y-388590D02*
Y-382290D01*
X15857Y-352723D02*
X36046D01*
X15857D02*
Y-335723D01*
X36046Y-352723D02*
Y-335723D01*
X15857D02*
X36046D01*
X69310Y-240529D02*
X75610D01*
Y-229111D01*
X69310Y-240529D02*
Y-229111D01*
X75610D01*
D52*
X38189Y-47244D02*
X44488D01*
Y-50394D02*
Y-47244D01*
X38189Y-50394D02*
X44488D01*
X38189D02*
Y-47244D01*
Y-68898D02*
X44488D01*
Y-72047D02*
Y-68898D01*
X38189Y-72047D02*
X44488D01*
X38189D02*
Y-68898D01*
Y-90551D02*
X44488D01*
X38189Y-93701D02*
X44488D01*
Y-90551D01*
X38189Y-93701D02*
Y-90551D01*
Y-112205D02*
X44488D01*
Y-115354D02*
Y-112205D01*
X38189Y-115354D02*
X44488D01*
X38189D02*
Y-112205D01*
X34449Y-133858D02*
X48228D01*
Y-144882D02*
Y-133858D01*
X34449Y-144882D02*
X48228D01*
X34449D02*
Y-133858D01*
X23740Y-518701D02*
Y-473229D01*
X23741D02*
X27953D01*
Y-477362D02*
Y-473229D01*
X27677Y-477362D02*
X55000D01*
X54724D02*
Y-473229D01*
X58936D01*
X58937Y-518701D02*
Y-473229D01*
X27677Y-518701D02*
Y-477362D01*
X55000Y-518701D02*
Y-477362D01*
X27677Y-494567D02*
X55000D01*
X23741Y-490433D02*
X27953D01*
Y-494567D02*
Y-490433D01*
X54724Y-494567D02*
Y-490433D01*
X58936D01*
X23740Y-517244D02*
X58937D01*
X23740Y-518701D02*
X58937D01*
D53*
X37160Y-318971D02*
X47160D01*
X37160Y-331569D02*
X47160D01*
X16160Y-318971D02*
X26668D01*
X16160Y-331569D02*
X26668D01*
X47160D02*
Y-318971D01*
X16160Y-331569D02*
Y-318971D01*
M02*
