M48
;Layer_Color=9474304
;FILE_FORMAT=2:5
INCH,LZ
;TYPE=PLATED
T1F00S00C0.01181
T2F00S00C0.01575
T3F00S00C0.02362
T4F00S00C0.03543
%
T01
X0034811Y-045078
X0032677Y-0446575
X0038819Y-0424764
Y-0420079
X004378Y-0420039
Y-0424882
X0047677Y-0423622
X0056653Y-0424173
X0058701Y-0457126
X0062638Y-0457087
X006685Y-0457126
Y-0461299
X0047677Y-0414409
X0032795Y-0409449
X0036575Y-0388583
X0035197Y-0371024
X0035315Y-0357441
X0047638Y-0354803
Y-0360591
X0056693Y-0386575
X0059254Y-0389053
X0067559Y-0338976
X0058976Y-0327165
X005559Y-031311
X0031811Y-0305157
X0034449Y-0285906
Y-0277205
X0024724
Y-0285906
X0049449
Y-0277205
X0044803Y-0264016
X0063682Y-0283643
X0014528Y-039626
X0015512Y-041
X0022559Y-0218701
X0022362Y-0210709
X0020866Y-0198268
X00208Y-0191075
X0014842Y-0189094
X0011457Y-0186614
X0012598Y-0199331
X000311Y-0210394
X0012362Y-016315
X0007441Y-0133307
X0010748Y-0113504
X0032913Y-0119843
X0040905Y-0124764
X0059595Y-0128021
X0059095Y-0145394
X0049213Y-0144803
X0035079Y-0141181
X0030945Y-0141181
X0028346Y-0150197
X0030386Y-0164299
X0027087Y-0167205
X0023228Y-0168543
X0032913Y-0169488
X0039961Y-0171811
X0046134Y-0170952
X0048071Y-0174134
X0054173Y-0173583
X0058465Y-0175945
X0063071Y-0175315
Y-0165118
X0060158Y-0167598
X0057323Y-0165512
X0064528Y-0160748
X0067559Y-0159134
X0072205Y-0156102
X0075945Y-0157874
X007703Y-014883
Y-014012
Y-013107
X0072205Y-0165354
X0074449Y-0171102
X0079331Y-0169252
X0070354Y-0178583
X0072992Y-0183425
X0067677Y-018689
X0065315Y-0189921
X0058976Y-0191102
X0046772Y-0190669
X0043622
Y-0194016
Y-0196929
X0039134
Y-0194016
Y-0190669
X0035787
X0035748Y-0194016
X0039134Y-0187244
X0043622Y-0187205
X0046772Y-0194016
X0050072Y-0210386
X0056371
X006252Y-0210394
X0075118Y-0207087
X0078031Y-0213228
X0066358Y-0223307
X0064764Y-0247165
Y-0253425
Y-0259764
X0050472Y-0236456
X0028858Y-0233701
X0032559Y-0220669
X0033189Y-0212598
X0027205Y-0206614
X0027441Y-0177795
X0041002Y-0164392
X0045197Y-0165197
X007082Y-0195204
X0054016Y-0104646
X0061535Y-0087087
X0053189Y-0060984
X0032913Y-0055709
X0041378Y-0044173
X00376Y-0036494
X0030394Y-0035512
X0046024Y-0035984
X0074016Y-004378
X007703Y-005703
X002248Y-006
X00208Y-0095303
X0002913Y-0040472
X0003268Y-0025197
X0002441Y-0015827
T02
X0040788Y-0252922
X0045512
Y-0248198
X0040788
T03
X0036561Y-0464882
X0038937Y-0461417
X0039567Y-0430945
X0043465Y-0433898
X0047874Y-0430669
X0032047Y-0424409
X0032323Y-0417165
X0040748Y-0415827
X0046968Y-040941
Y-040126
Y-0396339
Y-0390905
X0045039Y-0381535
Y-037563
Y-037059
X0056417Y-036563
X0062283Y-036689
X0067165
X0027441Y-0365118
X002748Y-0408386
X0015236Y-0413858
X0019961Y-0385472
X0020039Y-0365197
X0017992Y-0076614
T04
X000982Y-023887
Y-022887
M30
