%FSLAX25Y25*%
%MOIN*%
G70*
G01*
G75*
G04 Layer_Color=8388736*
%ADD10R,0.00984X0.03150*%
%ADD11R,0.03150X0.00984*%
%ADD12R,0.17716X0.17716*%
%ADD13R,0.07874X0.07874*%
%ADD14R,0.02362X0.02756*%
%ADD15R,0.02756X0.02362*%
%ADD16R,0.03150X0.03937*%
%ADD17R,0.02559X0.02165*%
%ADD18R,0.02165X0.02559*%
%ADD19R,0.03543X0.03150*%
%ADD20R,0.03543X0.03150*%
%ADD21R,0.01575X0.03937*%
%ADD22O,0.01181X0.07874*%
%ADD23R,0.01181X0.07874*%
%ADD24R,0.03937X0.01575*%
%ADD25R,0.02362X0.07874*%
%ADD26R,0.01063X0.07874*%
%ADD27R,0.05906X0.12992*%
%ADD28R,0.05906X0.03937*%
%ADD29R,0.03150X0.02559*%
%ADD30R,0.05118X0.15748*%
%ADD31C,0.05906*%
%ADD32R,0.03150X0.03543*%
%ADD33R,0.03150X0.03543*%
%ADD34R,0.06299X0.07480*%
%ADD35R,0.02756X0.13386*%
%ADD36R,0.07874X0.10000*%
%ADD37R,0.11417X0.11417*%
%ADD38C,0.00787*%
%ADD39C,0.01575*%
%ADD40C,0.02362*%
%ADD41C,0.01000*%
%ADD42C,0.01181*%
%ADD43R,0.05906X0.05906*%
%ADD44C,0.01969*%
%ADD45C,0.03150*%
%ADD46C,0.02756*%
%ADD47C,0.00984*%
%ADD48C,0.00500*%
%ADD49C,0.00591*%
%ADD50C,0.00394*%
%ADD51C,0.00709*%
%ADD52C,0.00197*%
%ADD53C,0.01200*%
%ADD54R,0.01784X0.03950*%
%ADD55R,0.03950X0.01784*%
%ADD56R,0.18517X0.18517*%
%ADD57R,0.08674X0.08674*%
%ADD58R,0.03162X0.03556*%
%ADD59R,0.03556X0.03162*%
%ADD60R,0.03950X0.04737*%
%ADD61R,0.03359X0.02965*%
%ADD62R,0.02965X0.03359*%
%ADD63R,0.04343X0.03950*%
%ADD64R,0.04343X0.03950*%
%ADD65R,0.02375X0.04737*%
%ADD66O,0.01981X0.08674*%
%ADD67R,0.01981X0.08674*%
%ADD68R,0.04737X0.02375*%
%ADD69R,0.03162X0.08674*%
%ADD70R,0.01863X0.08674*%
%ADD71R,0.06706X0.13792*%
%ADD72R,0.06706X0.04737*%
%ADD73R,0.03950X0.03359*%
%ADD74R,0.05918X0.16548*%
%ADD75C,0.06706*%
%ADD76R,0.03950X0.04343*%
%ADD77R,0.03950X0.04343*%
%ADD78R,0.07099X0.08280*%
%ADD79R,0.03556X0.14186*%
%ADD80R,0.08674X0.10800*%
%ADD81R,0.12217X0.12217*%
%ADD82R,0.06706X0.06706*%
D54*
X36287Y-178278D02*
D03*
X52035D02*
D03*
X50067D02*
D03*
X48098D02*
D03*
X46130D02*
D03*
X44161D02*
D03*
X42193D02*
D03*
X40224D02*
D03*
X38256D02*
D03*
X34319D02*
D03*
X32350D02*
D03*
X30382D02*
D03*
Y-205837D02*
D03*
X32350D02*
D03*
X34319D02*
D03*
X36287D02*
D03*
X38256D02*
D03*
X40224D02*
D03*
X42193D02*
D03*
X44161D02*
D03*
X46130D02*
D03*
X48098D02*
D03*
X50067D02*
D03*
X52035D02*
D03*
X50040Y-240718D02*
D03*
X48071D02*
D03*
X46103D02*
D03*
X44134D02*
D03*
X42166D02*
D03*
X40197D02*
D03*
X38229D02*
D03*
X36260D02*
D03*
Y-260402D02*
D03*
X38229D02*
D03*
X40197D02*
D03*
X42166D02*
D03*
X44134D02*
D03*
X46103D02*
D03*
X48071D02*
D03*
X50040D02*
D03*
D55*
X27429Y-181230D02*
D03*
Y-183199D02*
D03*
Y-185168D02*
D03*
Y-187136D02*
D03*
Y-189104D02*
D03*
Y-191073D02*
D03*
Y-193042D02*
D03*
Y-195010D02*
D03*
Y-196978D02*
D03*
Y-198947D02*
D03*
Y-200916D02*
D03*
Y-202884D02*
D03*
X54988D02*
D03*
Y-200916D02*
D03*
Y-198947D02*
D03*
Y-196978D02*
D03*
Y-195010D02*
D03*
Y-193042D02*
D03*
Y-191073D02*
D03*
Y-189104D02*
D03*
Y-187136D02*
D03*
Y-185168D02*
D03*
Y-183199D02*
D03*
Y-181230D02*
D03*
X33307Y-243670D02*
D03*
Y-245639D02*
D03*
Y-247607D02*
D03*
Y-249576D02*
D03*
Y-251544D02*
D03*
Y-253513D02*
D03*
Y-255481D02*
D03*
Y-257450D02*
D03*
X52992D02*
D03*
Y-255481D02*
D03*
Y-253513D02*
D03*
Y-251544D02*
D03*
Y-249576D02*
D03*
Y-247607D02*
D03*
Y-245639D02*
D03*
Y-243670D02*
D03*
D56*
X41209Y-192057D02*
D03*
D57*
X17890Y-459035D02*
D03*
Y-448247D02*
D03*
Y-437460D02*
D03*
D58*
X30809Y-215020D02*
D03*
X26085D02*
D03*
X61260Y-316310D02*
D03*
X65984D02*
D03*
X50878D02*
D03*
X55602D02*
D03*
X63768Y-39450D02*
D03*
X68492D02*
D03*
X30809Y-226273D02*
D03*
X26085D02*
D03*
X62348Y-48890D02*
D03*
X67072D02*
D03*
X62348Y-70460D02*
D03*
X67072D02*
D03*
X62348Y-92070D02*
D03*
X67072D02*
D03*
X62348Y-114340D02*
D03*
X67072D02*
D03*
X48062Y-461730D02*
D03*
X43338D02*
D03*
X56468Y-360710D02*
D03*
X61192D02*
D03*
X22768Y-397720D02*
D03*
X27492D02*
D03*
X56378Y-355020D02*
D03*
X61102D02*
D03*
X33008Y-397730D02*
D03*
X37732D02*
D03*
X41052Y-405500D02*
D03*
X36328D02*
D03*
X58958Y-332130D02*
D03*
X63682D02*
D03*
X15894Y-103000D02*
D03*
X11170D02*
D03*
X13318Y-71650D02*
D03*
X18042D02*
D03*
X15894Y-97050D02*
D03*
X11170D02*
D03*
X36278Y-168050D02*
D03*
X41002D02*
D03*
X24112Y-232660D02*
D03*
X19388D02*
D03*
X24122Y-257440D02*
D03*
X19398D02*
D03*
X56518Y-277000D02*
D03*
X61242D02*
D03*
D59*
X28350Y-145912D02*
D03*
Y-141188D02*
D03*
X63550Y-145792D02*
D03*
Y-141068D02*
D03*
Y-127488D02*
D03*
Y-132212D02*
D03*
X26600Y-453502D02*
D03*
Y-448778D02*
D03*
Y-443504D02*
D03*
Y-438780D02*
D03*
X76610Y-191882D02*
D03*
Y-187158D02*
D03*
X70820Y-198888D02*
D03*
Y-203612D02*
D03*
X65280Y-198878D02*
D03*
Y-203602D02*
D03*
D60*
X24556Y-427740D02*
D03*
X17864D02*
D03*
X20513Y-312866D02*
D03*
X27206D02*
D03*
X27477Y-403930D02*
D03*
X20784D02*
D03*
X38137Y-113903D02*
D03*
X44436D02*
D03*
X38137Y-92073D02*
D03*
X44436D02*
D03*
X38127Y-70423D02*
D03*
X44426D02*
D03*
X38137Y-48833D02*
D03*
X44436D02*
D03*
X24476Y-420130D02*
D03*
X17784D02*
D03*
X7664Y-35630D02*
D03*
X14356D02*
D03*
D61*
X34440Y-379343D02*
D03*
Y-383280D02*
D03*
X32650Y-439533D02*
D03*
Y-443470D02*
D03*
X32450Y-457457D02*
D03*
Y-453520D02*
D03*
X12010Y-183260D02*
D03*
Y-179323D02*
D03*
X10470Y-207100D02*
D03*
Y-211037D02*
D03*
X76610Y-198940D02*
D03*
Y-202877D02*
D03*
X22160Y-266510D02*
D03*
Y-270447D02*
D03*
X28420Y-266530D02*
D03*
Y-270467D02*
D03*
D62*
X26061Y-220670D02*
D03*
X29998D02*
D03*
X65197Y-322240D02*
D03*
X61260D02*
D03*
X20503Y-306266D02*
D03*
X24440D02*
D03*
X18947Y-48560D02*
D03*
X15010D02*
D03*
X78570Y-217890D02*
D03*
X74633D02*
D03*
X78569Y-224835D02*
D03*
X74632D02*
D03*
X50060Y-168005D02*
D03*
X53997D02*
D03*
X40190Y-270810D02*
D03*
X44127D02*
D03*
X23340Y-238890D02*
D03*
X19403D02*
D03*
X23340Y-251550D02*
D03*
X19403D02*
D03*
X57360Y-271290D02*
D03*
X61297D02*
D03*
X57360Y-265810D02*
D03*
X61297D02*
D03*
D63*
X14310Y-56150D02*
D03*
X10570Y-64811D02*
D03*
X14910Y-81250D02*
D03*
X11170Y-89911D02*
D03*
D64*
X18050Y-64811D02*
D03*
X18650Y-89911D02*
D03*
D65*
X27520Y-359158D02*
D03*
X20040D02*
D03*
X23780D02*
D03*
Y-371362D02*
D03*
X20040D02*
D03*
X27520D02*
D03*
X20040Y-391542D02*
D03*
X27520D02*
D03*
X23780D02*
D03*
Y-379338D02*
D03*
X27520D02*
D03*
X20040D02*
D03*
D66*
X54136Y-399676D02*
D03*
X56695D02*
D03*
X59254D02*
D03*
X61813D02*
D03*
X54136Y-378416D02*
D03*
X56695D02*
D03*
X59254D02*
D03*
X54136Y-433216D02*
D03*
X56695D02*
D03*
X59254D02*
D03*
X61813D02*
D03*
X54136Y-411956D02*
D03*
X56695D02*
D03*
X59254D02*
D03*
D67*
X61813Y-378416D02*
D03*
Y-411956D02*
D03*
D68*
X50922Y-454520D02*
D03*
Y-447040D02*
D03*
Y-450780D02*
D03*
X38718D02*
D03*
Y-447040D02*
D03*
Y-454520D02*
D03*
X78562Y-231080D02*
D03*
Y-238560D02*
D03*
X66358Y-234820D02*
D03*
Y-238560D02*
D03*
Y-231080D02*
D03*
D69*
X58438Y-471340D02*
D03*
X24422D02*
D03*
D70*
X52257D02*
D03*
X50288D02*
D03*
X48320D02*
D03*
X46351D02*
D03*
X44383D02*
D03*
X40446D02*
D03*
X38477D02*
D03*
X36509D02*
D03*
X34540D02*
D03*
X32572D02*
D03*
X30603D02*
D03*
X42414D02*
D03*
D71*
X65342Y-296080D02*
D03*
D72*
X40538Y-305135D02*
D03*
Y-296080D02*
D03*
Y-287025D02*
D03*
D73*
X44859Y-137733D02*
D03*
X38560D02*
D03*
X44859Y-141080D02*
D03*
X38560D02*
D03*
D74*
X19259Y-344223D02*
D03*
X32644D02*
D03*
D75*
X77030Y-140120D02*
D03*
Y-122290D02*
D03*
Y-131070D02*
D03*
Y-148830D02*
D03*
X9820Y-228870D02*
D03*
D76*
X52530Y-343550D02*
D03*
X61191Y-347290D02*
D03*
D77*
Y-339810D02*
D03*
D78*
X78067Y-8120D02*
D03*
X55272D02*
D03*
X46183Y-8049D02*
D03*
X4687D02*
D03*
D79*
X69642Y-24098D02*
D03*
X63736D02*
D03*
X13978Y-24027D02*
D03*
X19884D02*
D03*
X25789D02*
D03*
X31695D02*
D03*
X37600D02*
D03*
D80*
X40660Y-325270D02*
D03*
X22943D02*
D03*
D81*
X43150Y-250560D02*
D03*
D82*
X9820Y-238870D02*
D03*
M02*
